# xmcd
#
# Track frame offsets:
# 150
# 15660
# 31182
#
# Disc length: 623 seconds
#
#
# Revision: 0
# Processed by: cddbd v1.5.1PL0 Copyright (c) Steve Scherf et al.
# Submitted via: FreeRIP 2.941 
#
DISCID=16026d03
DTITLE=David Lee Murphy - Gettin' Out The Good Stuff
DYEAR=1997
DGENRE=Country
TTITLE0=Every Time I Get Around You
TTITLE1=Every Time I Get Around You
TTITLE2=Every Time I Get Around You
EXTD=
EXTT0=
EXTT1=
EXTT2=
PLAYORDER=
